# xmcd
#
# Track frame offsets:
#	150
#	16615
#	34050
#	49325
#	67895
#	83155
#	99575
#	116077
#	139385
#	154187
#	172082
#	185600
#	203647
#	221137
#
# Disc length: 3166
#
# Revision: 3
# Processed by: cddbd v1.5.1PL0 Copyright (c) Steve Scherf et al.
# Submitted via: audiograbber 1.80.04
# Normalized: r2:DSETVAR2
#
DISCID=c60c5c0e
DTITLE=Various Artist - Rhythm and Blues
DYEAR=1900
DGENRE=R&B
TTITLE0=Destiny´s Child - Independent Women Part 1
TTITLE1=Spice Girls - Holler
TTITLE2=Craig David - Walking Away
TTITLE3=Kelis - Caught Out There (I Hate You So Much Right Now)
TTITLE4=Kinnda - Freak You Out
TTITLE5=Mis-Teeq - Why?
TTITLE6=Lucy Pearl - Don´t Mess With My Man
TTITLE7=En Vogue - Riddle
TTITLE8=Shimoli - Damned
TTITLE9=Spooks - Things I´ve Seen
TTITLE10=Excellence - Need To Know
TTITLE11=Melanie B - Feels So Good
TTITLE12=Macy Gray - I Try
TTITLE13=Chana - Blaming Me
EXTD=
EXTT0=
EXTT1=
EXTT2=
EXTT3=
EXTT4=
EXTT5=
EXTT6=
EXTT7=
EXTT8=
EXTT9=
EXTT10=
EXTT11=
EXTT12=
EXTT13=
PLAYORDER=
